<svg xmlns="http://www.w3.org/2000/svg" viewBox="0 0 128 128">
  <defs>
    <linearGradient id="grad" x1="0%" y1="0%" x2="100%" y2="100%">
      <stop offset="0%" style="stop-color:#0ea5e9;stop-opacity:1" />
      <stop offset="100%" style="stop-color:#0369a1;stop-opacity:1" />
    </linearGradient>
  </defs>
  <rect width="128" height="128" rx="24" fill="url(#grad)"/>
  <g fill="white">
    <!-- Brain icon -->
    <path d="M64 24c-22 0-40 18-40 40s18 40 40 40 40-18 40-40-18-40-40-40zm0 72c-17.7 0-32-14.3-32-32s14.3-32 32-32 32 14.3 32 32-14.3 32-32 32z"/>
    <circle cx="52" cy="56" r="6"/>
    <circle cx="76" cy="56" r="6"/>
    <path d="M64 76c-8 0-14-4-14-10h28c0 6-6 10-14 10z"/>
    <!-- Sparkle -->
    <path d="M96 32l4-8 4 8 8 4-8 4-4 8-4-8-8-4z" opacity="0.8"/>
  </g>
</svg>
